<svg width="14" height="12" viewBox="0 0 14 12" fill="none" xmlns="http://www.w3.org/2000/svg">
<path d="M12.0353 1.54919C11.7324 1.24611 11.3727 1.00568 10.9768 0.841647C10.5809 0.677612 10.1566 0.593182 9.72805 0.593182C9.29953 0.593182 8.8752 0.677612 8.47931 0.841647C8.08343 1.00568 7.72374 1.24611 7.4208 1.54919L6.79209 2.17791L6.16338 1.54919C5.55146 0.937273 4.72151 0.5935 3.85613 0.5935C2.99074 0.5935 2.1608 0.937273 1.54888 1.54919C0.936956 2.16112 0.593182 2.99106 0.593182 3.85644C0.593182 4.72183 0.936956 5.55177 1.54888 6.1637L2.17759 6.79241L6.79209 11.4069L11.4066 6.79241L12.0353 6.1637C12.3384 5.86075 12.5788 5.50107 12.7428 5.10518C12.9069 4.70929 12.9913 4.28497 12.9913 3.85644C12.9913 3.42792 12.9069 3.00359 12.7428 2.60771C12.5788 2.21182 12.3384 1.85214 12.0353 1.54919V1.54919Z" stroke="#6100C2" stroke-width="1.18519" stroke-linecap="round" stroke-linejoin="round"/>
</svg>
